<mxfile host="app.diagrams.net" agent="Mozilla/5.0 (Windows NT 10.0; Win64; x64) AppleWebKit/537.36 (KHTML, like Gecko) Chrome/127.0.0.0 Safari/537.36 Edg/127.0.0.0" version="24.7.7">
  <diagram name="第 1 页" id="VUyj2m2OqaJEFEo-j7Zs">
    <mxGraphModel dx="1386" dy="748" grid="1" gridSize="10" guides="1" tooltips="1" connect="1" arrows="1" fold="1" page="1" pageScale="1" pageWidth="1654" pageHeight="1169" math="1" shadow="0">
      <root>
        <mxCell id="0" />
        <mxCell id="1" parent="0" />
        <mxCell id="WJeP69q8FkyDFJacEMiq-81" value="" style="rounded=1;whiteSpace=wrap;html=1;" vertex="1" parent="1">
          <mxGeometry x="715" y="390" width="125" height="110" as="geometry" />
        </mxCell>
        <mxCell id="WJeP69q8FkyDFJacEMiq-80" value="" style="rounded=1;whiteSpace=wrap;html=1;" vertex="1" parent="1">
          <mxGeometry x="720" y="230" width="120" height="100" as="geometry" />
        </mxCell>
        <mxCell id="WJeP69q8FkyDFJacEMiq-72" value="" style="rounded=1;whiteSpace=wrap;html=1;" vertex="1" parent="1">
          <mxGeometry x="720" y="120" width="120" height="100" as="geometry" />
        </mxCell>
        <mxCell id="WJeP69q8FkyDFJacEMiq-56" style="edgeStyle=orthogonalEdgeStyle;rounded=0;orthogonalLoop=1;jettySize=auto;html=1;exitX=1;exitY=0.5;exitDx=0;exitDy=0;entryX=0;entryY=0.5;entryDx=0;entryDy=0;" edge="1" parent="1" source="WJeP69q8FkyDFJacEMiq-22" target="WJeP69q8FkyDFJacEMiq-55">
          <mxGeometry relative="1" as="geometry" />
        </mxCell>
        <mxCell id="WJeP69q8FkyDFJacEMiq-22" value="" style="rounded=1;whiteSpace=wrap;html=1;" vertex="1" parent="1">
          <mxGeometry x="260" y="340" width="160" height="240" as="geometry" />
        </mxCell>
        <mxCell id="WJeP69q8FkyDFJacEMiq-24" style="edgeStyle=orthogonalEdgeStyle;rounded=0;orthogonalLoop=1;jettySize=auto;html=1;exitX=1;exitY=0.5;exitDx=0;exitDy=0;" edge="1" parent="1" source="WJeP69q8FkyDFJacEMiq-21">
          <mxGeometry relative="1" as="geometry">
            <mxPoint x="540" y="180" as="targetPoint" />
          </mxGeometry>
        </mxCell>
        <mxCell id="WJeP69q8FkyDFJacEMiq-27" style="edgeStyle=orthogonalEdgeStyle;rounded=0;orthogonalLoop=1;jettySize=auto;html=1;exitX=1;exitY=0.5;exitDx=0;exitDy=0;entryX=0;entryY=0.5;entryDx=0;entryDy=0;" edge="1" parent="1" source="WJeP69q8FkyDFJacEMiq-21" target="WJeP69q8FkyDFJacEMiq-26">
          <mxGeometry relative="1" as="geometry" />
        </mxCell>
        <mxCell id="WJeP69q8FkyDFJacEMiq-21" value="" style="rounded=1;whiteSpace=wrap;html=1;" vertex="1" parent="1">
          <mxGeometry x="260" y="60" width="160" height="240" as="geometry" />
        </mxCell>
        <mxCell id="WJeP69q8FkyDFJacEMiq-1" value="u" style="ellipse;whiteSpace=wrap;html=1;aspect=fixed;fillColor=#dae8fc;strokeColor=#6c8ebf;" vertex="1" parent="1">
          <mxGeometry x="280" y="80" width="40" height="40" as="geometry" />
        </mxCell>
        <mxCell id="WJeP69q8FkyDFJacEMiq-2" value="i" style="ellipse;whiteSpace=wrap;html=1;aspect=fixed;fillColor=#ffe6cc;strokeColor=#d79b00;" vertex="1" parent="1">
          <mxGeometry x="360" y="120" width="40" height="40" as="geometry" />
        </mxCell>
        <mxCell id="WJeP69q8FkyDFJacEMiq-7" style="rounded=0;orthogonalLoop=1;jettySize=auto;html=1;exitX=1;exitY=0.5;exitDx=0;exitDy=0;entryX=0;entryY=0.5;entryDx=0;entryDy=0;" edge="1" parent="1" source="WJeP69q8FkyDFJacEMiq-3" target="WJeP69q8FkyDFJacEMiq-2">
          <mxGeometry relative="1" as="geometry" />
        </mxCell>
        <mxCell id="WJeP69q8FkyDFJacEMiq-9" style="rounded=0;orthogonalLoop=1;jettySize=auto;html=1;exitX=1;exitY=0.5;exitDx=0;exitDy=0;entryX=0;entryY=0.5;entryDx=0;entryDy=0;" edge="1" parent="1" source="WJeP69q8FkyDFJacEMiq-3" target="WJeP69q8FkyDFJacEMiq-4">
          <mxGeometry relative="1" as="geometry" />
        </mxCell>
        <mxCell id="WJeP69q8FkyDFJacEMiq-3" value="u" style="ellipse;whiteSpace=wrap;html=1;aspect=fixed;fillColor=#dae8fc;strokeColor=#6c8ebf;" vertex="1" parent="1">
          <mxGeometry x="280" y="160" width="40" height="40" as="geometry" />
        </mxCell>
        <mxCell id="WJeP69q8FkyDFJacEMiq-4" value="i" style="ellipse;whiteSpace=wrap;html=1;aspect=fixed;fillColor=#ffe6cc;strokeColor=#d79b00;" vertex="1" parent="1">
          <mxGeometry x="360" y="200" width="40" height="40" as="geometry" />
        </mxCell>
        <mxCell id="WJeP69q8FkyDFJacEMiq-8" style="rounded=0;orthogonalLoop=1;jettySize=auto;html=1;exitX=1;exitY=0;exitDx=0;exitDy=0;" edge="1" parent="1" source="WJeP69q8FkyDFJacEMiq-5">
          <mxGeometry relative="1" as="geometry">
            <mxPoint x="360" y="140" as="targetPoint" />
          </mxGeometry>
        </mxCell>
        <mxCell id="WJeP69q8FkyDFJacEMiq-10" style="rounded=0;orthogonalLoop=1;jettySize=auto;html=1;exitX=1;exitY=0;exitDx=0;exitDy=0;entryX=0;entryY=0.5;entryDx=0;entryDy=0;" edge="1" parent="1" source="WJeP69q8FkyDFJacEMiq-5" target="WJeP69q8FkyDFJacEMiq-4">
          <mxGeometry relative="1" as="geometry" />
        </mxCell>
        <mxCell id="WJeP69q8FkyDFJacEMiq-5" value="u" style="ellipse;whiteSpace=wrap;html=1;aspect=fixed;fillColor=#dae8fc;strokeColor=#6c8ebf;" vertex="1" parent="1">
          <mxGeometry x="280" y="240" width="40" height="40" as="geometry" />
        </mxCell>
        <mxCell id="WJeP69q8FkyDFJacEMiq-6" style="rounded=0;orthogonalLoop=1;jettySize=auto;html=1;exitX=1;exitY=1;exitDx=0;exitDy=0;entryX=0.1;entryY=0.35;entryDx=0;entryDy=0;entryPerimeter=0;" edge="1" parent="1" source="WJeP69q8FkyDFJacEMiq-1" target="WJeP69q8FkyDFJacEMiq-4">
          <mxGeometry relative="1" as="geometry" />
        </mxCell>
        <mxCell id="WJeP69q8FkyDFJacEMiq-11" value="u" style="ellipse;whiteSpace=wrap;html=1;aspect=fixed;fillColor=#dae8fc;strokeColor=#6c8ebf;" vertex="1" parent="1">
          <mxGeometry x="280" y="360" width="40" height="40" as="geometry" />
        </mxCell>
        <mxCell id="WJeP69q8FkyDFJacEMiq-12" value="i" style="ellipse;whiteSpace=wrap;html=1;aspect=fixed;fillColor=#ffe6cc;strokeColor=#d79b00;" vertex="1" parent="1">
          <mxGeometry x="360" y="400" width="40" height="40" as="geometry" />
        </mxCell>
        <mxCell id="WJeP69q8FkyDFJacEMiq-13" style="rounded=0;orthogonalLoop=1;jettySize=auto;html=1;exitX=1;exitY=0.5;exitDx=0;exitDy=0;entryX=0;entryY=0.5;entryDx=0;entryDy=0;" edge="1" parent="1" source="WJeP69q8FkyDFJacEMiq-15" target="WJeP69q8FkyDFJacEMiq-12">
          <mxGeometry relative="1" as="geometry" />
        </mxCell>
        <mxCell id="WJeP69q8FkyDFJacEMiq-14" style="rounded=0;orthogonalLoop=1;jettySize=auto;html=1;exitX=1;exitY=0.5;exitDx=0;exitDy=0;entryX=0;entryY=0.5;entryDx=0;entryDy=0;" edge="1" parent="1" source="WJeP69q8FkyDFJacEMiq-15" target="WJeP69q8FkyDFJacEMiq-16">
          <mxGeometry relative="1" as="geometry" />
        </mxCell>
        <mxCell id="WJeP69q8FkyDFJacEMiq-15" value="u" style="ellipse;whiteSpace=wrap;html=1;aspect=fixed;fillColor=#dae8fc;strokeColor=#6c8ebf;" vertex="1" parent="1">
          <mxGeometry x="280" y="440" width="40" height="40" as="geometry" />
        </mxCell>
        <mxCell id="WJeP69q8FkyDFJacEMiq-16" value="i" style="ellipse;whiteSpace=wrap;html=1;aspect=fixed;fillColor=#ffe6cc;strokeColor=#d79b00;" vertex="1" parent="1">
          <mxGeometry x="360" y="480" width="40" height="40" as="geometry" />
        </mxCell>
        <mxCell id="WJeP69q8FkyDFJacEMiq-17" style="rounded=0;orthogonalLoop=1;jettySize=auto;html=1;exitX=1;exitY=0;exitDx=0;exitDy=0;" edge="1" parent="1" source="WJeP69q8FkyDFJacEMiq-19">
          <mxGeometry relative="1" as="geometry">
            <mxPoint x="360" y="420" as="targetPoint" />
          </mxGeometry>
        </mxCell>
        <mxCell id="WJeP69q8FkyDFJacEMiq-18" style="rounded=0;orthogonalLoop=1;jettySize=auto;html=1;exitX=1;exitY=0;exitDx=0;exitDy=0;entryX=0;entryY=0.5;entryDx=0;entryDy=0;" edge="1" parent="1" source="WJeP69q8FkyDFJacEMiq-19" target="WJeP69q8FkyDFJacEMiq-16">
          <mxGeometry relative="1" as="geometry" />
        </mxCell>
        <mxCell id="WJeP69q8FkyDFJacEMiq-19" value="u" style="ellipse;whiteSpace=wrap;html=1;aspect=fixed;fillColor=#dae8fc;strokeColor=#6c8ebf;" vertex="1" parent="1">
          <mxGeometry x="280" y="520" width="40" height="40" as="geometry" />
        </mxCell>
        <mxCell id="WJeP69q8FkyDFJacEMiq-20" style="rounded=0;orthogonalLoop=1;jettySize=auto;html=1;exitX=1;exitY=1;exitDx=0;exitDy=0;entryX=0.1;entryY=0.35;entryDx=0;entryDy=0;entryPerimeter=0;startArrow=dash;startFill=0;endArrow=dash;endFill=0;fillColor=#f8cecc;strokeColor=#FF0000;dashed=1;" edge="1" parent="1" source="WJeP69q8FkyDFJacEMiq-11" target="WJeP69q8FkyDFJacEMiq-16">
          <mxGeometry relative="1" as="geometry" />
        </mxCell>
        <mxCell id="WJeP69q8FkyDFJacEMiq-28" style="edgeStyle=orthogonalEdgeStyle;rounded=0;orthogonalLoop=1;jettySize=auto;html=1;exitX=1;exitY=0.5;exitDx=0;exitDy=0;" edge="1" parent="1" source="WJeP69q8FkyDFJacEMiq-25">
          <mxGeometry relative="1" as="geometry">
            <mxPoint x="720" y="180" as="targetPoint" />
          </mxGeometry>
        </mxCell>
        <mxCell id="WJeP69q8FkyDFJacEMiq-25" value="interest encoder" style="rounded=1;whiteSpace=wrap;html=1;fillColor=#e1d5e7;strokeColor=#9673a6;" vertex="1" parent="1">
          <mxGeometry x="540" y="150" width="120" height="60" as="geometry" />
        </mxCell>
        <mxCell id="WJeP69q8FkyDFJacEMiq-29" style="edgeStyle=orthogonalEdgeStyle;rounded=0;orthogonalLoop=1;jettySize=auto;html=1;exitX=1;exitY=0.5;exitDx=0;exitDy=0;" edge="1" parent="1" source="WJeP69q8FkyDFJacEMiq-26">
          <mxGeometry relative="1" as="geometry">
            <mxPoint x="720" y="290" as="targetPoint" />
          </mxGeometry>
        </mxCell>
        <mxCell id="WJeP69q8FkyDFJacEMiq-26" value="conformity encoder" style="rounded=1;whiteSpace=wrap;html=1;fillColor=#d5e8d4;strokeColor=#82b366;" vertex="1" parent="1">
          <mxGeometry x="540" y="260" width="120" height="60" as="geometry" />
        </mxCell>
        <mxCell id="WJeP69q8FkyDFJacEMiq-57" style="edgeStyle=orthogonalEdgeStyle;rounded=0;orthogonalLoop=1;jettySize=auto;html=1;exitX=1;exitY=0.5;exitDx=0;exitDy=0;" edge="1" parent="1" source="WJeP69q8FkyDFJacEMiq-55">
          <mxGeometry relative="1" as="geometry">
            <mxPoint x="720" y="460" as="targetPoint" />
          </mxGeometry>
        </mxCell>
        <mxCell id="WJeP69q8FkyDFJacEMiq-55" value="conformity encoder" style="rounded=1;whiteSpace=wrap;html=1;fillColor=#d5e8d4;strokeColor=#82b366;" vertex="1" parent="1">
          <mxGeometry x="540" y="430" width="120" height="60" as="geometry" />
        </mxCell>
        <mxCell id="WJeP69q8FkyDFJacEMiq-59" value="" style="group;fillColor=#ffe6cc;strokeColor=#d79b00;" vertex="1" connectable="0" parent="1">
          <mxGeometry x="735" y="430" width="20" height="60" as="geometry" />
        </mxCell>
        <mxCell id="WJeP69q8FkyDFJacEMiq-60" value="" style="whiteSpace=wrap;html=1;aspect=fixed;fillColor=#ffe6cc;strokeColor=#d79b00;" vertex="1" parent="WJeP69q8FkyDFJacEMiq-59">
          <mxGeometry width="20" height="20" as="geometry" />
        </mxCell>
        <mxCell id="WJeP69q8FkyDFJacEMiq-61" value="" style="whiteSpace=wrap;html=1;aspect=fixed;fillColor=#ffe6cc;strokeColor=#d79b00;" vertex="1" parent="WJeP69q8FkyDFJacEMiq-59">
          <mxGeometry y="20" width="20" height="20" as="geometry" />
        </mxCell>
        <mxCell id="WJeP69q8FkyDFJacEMiq-62" value="" style="whiteSpace=wrap;html=1;aspect=fixed;fillColor=#ffe6cc;strokeColor=#d79b00;" vertex="1" parent="WJeP69q8FkyDFJacEMiq-59">
          <mxGeometry y="40" width="20" height="20" as="geometry" />
        </mxCell>
        <mxCell id="WJeP69q8FkyDFJacEMiq-67" value="u_con_arg" style="text;html=1;align=center;verticalAlign=middle;resizable=0;points=[];autosize=1;strokeColor=none;fillColor=none;" vertex="1" parent="1">
          <mxGeometry x="705" y="400" width="80" height="30" as="geometry" />
        </mxCell>
        <mxCell id="WJeP69q8FkyDFJacEMiq-69" value="" style="group" vertex="1" connectable="0" parent="1">
          <mxGeometry x="775" y="400" width="80" height="90" as="geometry" />
        </mxCell>
        <mxCell id="WJeP69q8FkyDFJacEMiq-63" value="" style="group;fillColor=#dae8fc;strokeColor=#6c8ebf;" vertex="1" connectable="0" parent="WJeP69q8FkyDFJacEMiq-69">
          <mxGeometry x="30" y="30" width="20" height="60" as="geometry" />
        </mxCell>
        <mxCell id="WJeP69q8FkyDFJacEMiq-64" value="" style="whiteSpace=wrap;html=1;aspect=fixed;fillColor=#dae8fc;strokeColor=#6c8ebf;" vertex="1" parent="WJeP69q8FkyDFJacEMiq-63">
          <mxGeometry width="20" height="20" as="geometry" />
        </mxCell>
        <mxCell id="WJeP69q8FkyDFJacEMiq-65" value="" style="whiteSpace=wrap;html=1;aspect=fixed;fillColor=#dae8fc;strokeColor=#6c8ebf;" vertex="1" parent="WJeP69q8FkyDFJacEMiq-63">
          <mxGeometry y="20" width="20" height="20" as="geometry" />
        </mxCell>
        <mxCell id="WJeP69q8FkyDFJacEMiq-66" value="" style="whiteSpace=wrap;html=1;aspect=fixed;fillColor=#dae8fc;strokeColor=#6c8ebf;" vertex="1" parent="WJeP69q8FkyDFJacEMiq-63">
          <mxGeometry y="40" width="20" height="20" as="geometry" />
        </mxCell>
        <mxCell id="WJeP69q8FkyDFJacEMiq-68" value="i_con_arg" style="text;html=1;align=center;verticalAlign=middle;resizable=0;points=[];autosize=1;strokeColor=none;fillColor=none;" vertex="1" parent="WJeP69q8FkyDFJacEMiq-69">
          <mxGeometry width="80" height="30" as="geometry" />
        </mxCell>
        <mxCell id="WJeP69q8FkyDFJacEMiq-33" value="" style="group;fillColor=#ffe6cc;strokeColor=#d79b00;" vertex="1" connectable="0" parent="1">
          <mxGeometry x="735" y="150" width="20" height="60" as="geometry" />
        </mxCell>
        <mxCell id="WJeP69q8FkyDFJacEMiq-30" value="" style="whiteSpace=wrap;html=1;aspect=fixed;fillColor=#ffe6cc;strokeColor=#d79b00;" vertex="1" parent="WJeP69q8FkyDFJacEMiq-33">
          <mxGeometry width="20" height="20" as="geometry" />
        </mxCell>
        <mxCell id="WJeP69q8FkyDFJacEMiq-31" value="" style="whiteSpace=wrap;html=1;aspect=fixed;fillColor=#ffe6cc;strokeColor=#d79b00;" vertex="1" parent="WJeP69q8FkyDFJacEMiq-33">
          <mxGeometry y="20" width="20" height="20" as="geometry" />
        </mxCell>
        <mxCell id="WJeP69q8FkyDFJacEMiq-32" value="" style="whiteSpace=wrap;html=1;aspect=fixed;fillColor=#ffe6cc;strokeColor=#d79b00;" vertex="1" parent="WJeP69q8FkyDFJacEMiq-33">
          <mxGeometry y="40" width="20" height="20" as="geometry" />
        </mxCell>
        <mxCell id="WJeP69q8FkyDFJacEMiq-38" value="u_int" style="text;html=1;align=center;verticalAlign=middle;resizable=0;points=[];autosize=1;strokeColor=none;fillColor=none;" vertex="1" parent="1">
          <mxGeometry x="720" y="120" width="50" height="30" as="geometry" />
        </mxCell>
        <mxCell id="WJeP69q8FkyDFJacEMiq-71" value="" style="group" vertex="1" connectable="0" parent="1">
          <mxGeometry x="790" y="120" width="50" height="90" as="geometry" />
        </mxCell>
        <mxCell id="WJeP69q8FkyDFJacEMiq-34" value="" style="group;fillColor=#dae8fc;strokeColor=#6c8ebf;" vertex="1" connectable="0" parent="WJeP69q8FkyDFJacEMiq-71">
          <mxGeometry x="15" y="30" width="20" height="60" as="geometry" />
        </mxCell>
        <mxCell id="WJeP69q8FkyDFJacEMiq-35" value="" style="whiteSpace=wrap;html=1;aspect=fixed;fillColor=#dae8fc;strokeColor=#6c8ebf;" vertex="1" parent="WJeP69q8FkyDFJacEMiq-34">
          <mxGeometry width="20" height="20" as="geometry" />
        </mxCell>
        <mxCell id="WJeP69q8FkyDFJacEMiq-36" value="" style="whiteSpace=wrap;html=1;aspect=fixed;fillColor=#dae8fc;strokeColor=#6c8ebf;" vertex="1" parent="WJeP69q8FkyDFJacEMiq-34">
          <mxGeometry y="20" width="20" height="20" as="geometry" />
        </mxCell>
        <mxCell id="WJeP69q8FkyDFJacEMiq-37" value="" style="whiteSpace=wrap;html=1;aspect=fixed;fillColor=#dae8fc;strokeColor=#6c8ebf;" vertex="1" parent="WJeP69q8FkyDFJacEMiq-34">
          <mxGeometry y="40" width="20" height="20" as="geometry" />
        </mxCell>
        <mxCell id="WJeP69q8FkyDFJacEMiq-39" value="i_int" style="text;html=1;align=center;verticalAlign=middle;resizable=0;points=[];autosize=1;strokeColor=none;fillColor=none;" vertex="1" parent="WJeP69q8FkyDFJacEMiq-71">
          <mxGeometry width="50" height="30" as="geometry" />
        </mxCell>
        <mxCell id="WJeP69q8FkyDFJacEMiq-79" value="" style="group" vertex="1" connectable="0" parent="1">
          <mxGeometry x="790" y="230" width="50" height="95" as="geometry" />
        </mxCell>
        <mxCell id="WJeP69q8FkyDFJacEMiq-78" value="i_con" style="text;html=1;align=center;verticalAlign=middle;resizable=0;points=[];autosize=1;strokeColor=none;fillColor=none;" vertex="1" parent="WJeP69q8FkyDFJacEMiq-79">
          <mxGeometry width="50" height="30" as="geometry" />
        </mxCell>
        <mxCell id="WJeP69q8FkyDFJacEMiq-74" value="" style="group;fillColor=#dae8fc;strokeColor=#6c8ebf;" vertex="1" connectable="0" parent="WJeP69q8FkyDFJacEMiq-79">
          <mxGeometry x="15" y="30" width="20" height="60" as="geometry" />
        </mxCell>
        <mxCell id="WJeP69q8FkyDFJacEMiq-75" value="" style="whiteSpace=wrap;html=1;aspect=fixed;fillColor=#dae8fc;strokeColor=#6c8ebf;" vertex="1" parent="WJeP69q8FkyDFJacEMiq-74">
          <mxGeometry width="20" height="20" as="geometry" />
        </mxCell>
        <mxCell id="WJeP69q8FkyDFJacEMiq-76" value="" style="whiteSpace=wrap;html=1;aspect=fixed;fillColor=#dae8fc;strokeColor=#6c8ebf;" vertex="1" parent="WJeP69q8FkyDFJacEMiq-74">
          <mxGeometry y="20" width="20" height="20" as="geometry" />
        </mxCell>
        <mxCell id="WJeP69q8FkyDFJacEMiq-77" value="" style="whiteSpace=wrap;html=1;aspect=fixed;fillColor=#dae8fc;strokeColor=#6c8ebf;" vertex="1" parent="WJeP69q8FkyDFJacEMiq-74">
          <mxGeometry y="40" width="20" height="20" as="geometry" />
        </mxCell>
        <mxCell id="WJeP69q8FkyDFJacEMiq-42" value="" style="group;fillColor=#ffe6cc;strokeColor=#d79b00;" vertex="1" connectable="0" parent="1">
          <mxGeometry x="735" y="260" width="20" height="60" as="geometry" />
        </mxCell>
        <mxCell id="WJeP69q8FkyDFJacEMiq-43" value="" style="whiteSpace=wrap;html=1;aspect=fixed;fillColor=#ffe6cc;strokeColor=#d79b00;" vertex="1" parent="WJeP69q8FkyDFJacEMiq-42">
          <mxGeometry width="20" height="20" as="geometry" />
        </mxCell>
        <mxCell id="WJeP69q8FkyDFJacEMiq-44" value="" style="whiteSpace=wrap;html=1;aspect=fixed;fillColor=#ffe6cc;strokeColor=#d79b00;" vertex="1" parent="WJeP69q8FkyDFJacEMiq-42">
          <mxGeometry y="20" width="20" height="20" as="geometry" />
        </mxCell>
        <mxCell id="WJeP69q8FkyDFJacEMiq-45" value="" style="whiteSpace=wrap;html=1;aspect=fixed;fillColor=#ffe6cc;strokeColor=#d79b00;" vertex="1" parent="WJeP69q8FkyDFJacEMiq-42">
          <mxGeometry y="40" width="20" height="20" as="geometry" />
        </mxCell>
        <mxCell id="WJeP69q8FkyDFJacEMiq-50" value="u_con" style="text;html=1;align=center;verticalAlign=middle;resizable=0;points=[];autosize=1;strokeColor=none;fillColor=none;" vertex="1" parent="1">
          <mxGeometry x="715" y="230" width="60" height="30" as="geometry" />
        </mxCell>
      </root>
    </mxGraphModel>
  </diagram>
</mxfile>
